<svg width="237" height="237" viewBox="0 0 237 237" fill="none"
  xmlns="http://www.w3.org/2000/svg">
  <g clip-path="url(#clip0_1_10)">
    <path d="M0 118.5V237H118.5H237V118.5V0H118.5H0V118.5ZM162.567 115.167C135.905 156.642 113.316 191.081 112.945 191.822C112.575 192.192 92.9484 182.564 69.2484 169.603C45.5484 157.013 27.0328 145.533 28.1438 144.792C31.4766 141.459 209.227 38.1422 210.338 38.8828C211.078 39.6234 189.6 73.6922 162.567 115.167Z" fill="#FF0000"/>
    <path d="M162.567 115.167C135.905 156.642 113.316 191.081 112.945 191.822C112.575 192.192 92.9484 182.564 69.2484 169.603C45.5484 157.013 27.0328 145.533 28.1438 144.792C31.4766 141.459 209.227 38.1422 210.338 38.8828C211.078 39.6234 189.6 73.6922 162.567 115.167Z" fill="white"/>
  </g>
  <defs>
    <clipPath id="clip0_1_10">
      <rect width="237" height="237" fill="white"/>
    </clipPath>
  </defs>
</svg>
